<svg width="1349" height="347" xmlns="http://www.w3.org/2000/svg" xmlns:xlink="http://www.w3.org/1999/xlink" xml:space="preserve" overflow="hidden"><g transform="translate(-1960 -623)"><text fill="#262626" font-family="Fellix,Fellix_MSFontService,sans-serif" font-weight="700" font-size="165" transform="matrix(1 0 0 1 2307.77 844)">město urbiq</text><g><g><g><path d="M2134.87 657.969C2159.53 684.979 2193.53 701.622 2229.99 704.533 2236.76 705.168 2241.92 710.878 2241.88 717.682L2241.88 750.867C2241.88 823.003 2195.99 888.996 2132.29 929.83 2127.91 932.639 2122.3 932.639 2117.93 929.83 2054.22 888.996 2008.34 823.003 2008.34 750.867L2008.34 717.682C2008.29 710.878 2013.45 705.168 2020.23 704.533 2056.69 701.622 2090.69 684.979 2115.35 657.969 2120 652.58 2128.14 651.98 2133.53 656.63 2134.01 657.043 2134.45 657.49 2134.87 657.969Z" fill="#F7A717"/></g></g></g><g><g><g><path d="M2124.98 729.242C2090.89 729.242 2063.26 756.873 2063.26 790.958 2063.26 825.042 2090.89 852.674 2124.98 852.674 2159.06 852.674 2186.69 825.042 2186.69 790.958 2186.71 756.888 2159.1 729.257 2125.03 729.242 2125.01 729.242 2125 729.242 2124.98 729.242ZM2124.98 821.875C2124.98 821.875 2094.96 798.923 2094.96 780.387 2094.96 768.027 2113.85 754.787 2124.98 776.856 2136.1 754.787 2154.99 768.027 2154.99 780.387 2154.99 798.923 2124.98 821.875 2124.98 821.875Z" fill="#FFFFFF"/></g></g></g></g></svg>